<?xml version="1.0" encoding="UTF-8" standalone="no"?>
<!DOCTYPE svg PUBLIC "-//W3C//DTD SVG 1.1//EN" "http://www.w3.org/Graphics/SVG/1.1/DTD/svg11.dtd">
<svg xmlns="http://www.w3.org/2000/svg" version="1.1" viewBox="0.00 0.00 886.00 483.00">
<g stroke-width="2.10" fill="none" stroke-linecap="butt">
<path stroke="#e451d3" vector-effect="non-scaling-stroke" d="
  M 355.76 147.55
  Q 353.57 144.68 352.55 140.13"
/>
<path stroke="#de50df" vector-effect="non-scaling-stroke" d="
  M 352.55 140.13
  Q 349.33 132.49 344.76 126.56"
/>
<path stroke="#d54fef" vector-effect="non-scaling-stroke" d="
  M 344.76 126.56
  Q 340.31 119.87 334.67 114.84
  C 327.83 108.76 320.66 103.16 312.16 100.27"
/>
<path stroke="#cd4efd" vector-effect="non-scaling-stroke" d="
  M 312.16 100.27
  Q 299.99 94.63 286.74 93.53
  Q 282.33 93.16 273.63 93.14
  Q 219.13 92.99 164.59 93.05"
/>
<path stroke="#bc3ef0" vector-effect="non-scaling-stroke" d="
  M 312.16 100.27
  Q 309.77 102.78 307.23 102.81
  Q 305.28 102.83 304.00 103.13
  Q 301.47 103.70 301.42 103.71
  Q 296.14 104.37 291.01 105.80
  Q 290.26 106.00 289.50 105.96
  Q 288.65 105.90 287.90 106.11
  Q 279.11 108.48 269.88 110.35
  Q 269.19 110.49 268.55 110.20
  Q 268.33 110.09 268.16 110.28
  Q 268.11 110.33 268.16 110.39
  Q 268.35 110.65 267.97 110.74
  Q 263.09 111.77 258.19 112.68
  Q 255.63 113.15 253.39 113.89
  Q 250.87 114.72 248.59 115.31
  Q 243.64 116.61 239.24 117.48
  C 238.45 117.63 237.65 117.50 236.94 117.75
  Q 234.27 118.70 231.31 119.02
  Q 231.00 119.05 231.16 119.31
  Q 231.19 119.36 231.24 119.39
  Q 231.68 119.61 231.25 119.90
  Q 230.21 120.60 229.16 120.11
  A 1.97 1.89 52.1 0 0 228.13 119.96
  Q 227.25 120.07 226.35 119.84
  Q 226.10 119.78 225.98 120.01
  L 225.84 120.26
  Q 225.68 120.56 225.36 120.62
  L 218.43 121.94
  Q 217.98 122.03 217.63 121.74
  Q 217.18 121.39 216.62 121.60
  Q 212.99 122.98 209.41 124.06
  C 207.90 124.51 206.30 124.34 204.82 124.99
  Q 203.27 125.68 201.58 126.04
  Q 197.06 126.99 192.74 128.09
  Q 192.48 128.16 192.20 128.08
  Q 191.78 127.95 191.35 128.04
  Q 179.53 130.62 167.73 131.70
  Q 167.10 131.76 166.56 131.48
  Q 166.26 131.34 166.36 131.65
  Q 166.41 131.81 166.36 131.98
  Q 166.27 132.28 165.97 132.20
  Q 165.43 132.07 165.30 131.54"
/>
<path stroke="#cd40d2" vector-effect="non-scaling-stroke" d="
  M 344.76 126.56
  Q 343.31 127.41 341.47 128.12
  Q 339.75 128.79 337.91 128.63
  Q 335.13 128.38 332.78 129.09
  Q 331.00 129.63 329.18 129.99
  Q 323.51 131.11 318.04 132.39
  Q 312.47 133.70 306.92 134.85
  Q 295.25 137.26 283.76 139.77
  Q 275.78 141.51 266.73 143.13
  Q 265.93 143.28 265.33 143.55
  Q 264.67 143.85 263.96 143.97
  Q 255.19 145.49 245.64 147.59
  Q 244.25 147.89 242.89 148.29
  C 240.63 148.95 238.26 149.09 235.94 149.63
  Q 228.55 151.36 221.11 152.87
  Q 219.26 153.25 217.38 153.52
  Q 213.86 154.02 213.56 154.10
  A 38.11 6.84 -3.9 0 1 207.43 155.64
  Q 193.79 158.52 178.86 161.71
  Q 176.17 162.29 173.09 162.80
  Q 170.21 163.28 167.35 163.96
  Q 166.02 164.28 164.72 163.61"
/>
<path stroke="#e9439d" vector-effect="non-scaling-stroke" d="
  M 356.88 158.48
  Q 356.97 157.76 356.68 157.49
  Q 356.56 157.38 356.42 157.45
  Q 356.21 157.55 356.28 157.66
  Q 356.64 158.15 356.04 158.05
  Q 354.97 157.86 353.87 158.00
  Q 347.68 158.80 341.76 160.18
  Q 341.45 160.25 341.23 160.51
  Q 340.83 160.98 340.21 160.94
  C 338.86 160.84 337.60 160.82 336.26 161.20
  Q 333.82 161.89 331.27 162.44
  Q 281.24 173.22 259.19 177.49
  Q 258.44 177.64 257.81 178.12
  Q 257.61 178.27 257.25 178.13
  Q 247.61 179.98 238.55 181.99
  Q 235.59 182.64 227.53 184.12
  Q 222.00 185.14 216.56 186.51
  C 215.78 186.70 215.06 186.56 214.28 186.73
  Q 200.14 189.83 185.70 193.19
  Q 181.95 194.06 178.46 194.78
  Q 175.49 195.38 172.21 196.36
  Q 169.50 197.16 165.76 197.36
  Q 165.36 197.38 165.08 197.67
  Q 164.93 197.83 164.83 197.63
  Q 164.75 197.46 164.56 197.47"
/>
<path stroke="#dc42b6" vector-effect="non-scaling-stroke" d="
  M 352.55 140.13
  Q 352.33 140.27 352.15 140.27
  Q 351.99 140.26 351.94 140.12
  Q 351.92 140.07 351.94 140.02
  Q 352.23 139.53 351.76 139.85
  Q 350.10 141.00 349.50 141.13
  Q 338.71 143.45 327.01 146.53
  Q 326.54 146.65 326.01 146.57
  Q 325.50 146.49 325.00 146.64
  Q 321.75 147.62 318.40 148.01
  Q 314.91 148.41 311.84 149.12
  Q 301.68 151.46 290.27 153.68
  Q 283.27 155.04 274.66 156.73
  Q 274.21 156.82 273.75 156.81
  Q 273.27 156.81 273.10 157.26
  A 0.74 0.73 4.1 0 1 272.54 157.74
  Q 265.77 159.00 259.02 160.95
  C 257.90 161.27 256.86 160.97 255.77 161.16
  Q 242.99 163.43 230.25 166.14
  Q 229.48 166.30 228.72 166.46
  Q 222.68 167.71 216.62 168.71
  Q 213.89 169.16 211.54 169.85
  Q 208.97 170.61 206.38 171.17
  Q 205.36 171.38 204.33 171.88
  Q 203.33 172.35 202.23 172.61
  Q 201.87 172.69 201.85 172.33
  Q 201.82 172.04 201.54 172.10
  Q 195.68 173.22 186.75 175.43
  Q 185.37 175.78 183.97 176.28
  Q 182.63 176.76 181.19 176.89
  Q 181.12 176.90 181.11 176.97
  Q 181.10 177.02 181.08 177.07
  Q 181.00 177.24 180.80 177.30
  Q 178.03 178.07 174.99 178.82
  Q 171.92 179.58 164.76 179.60"
/>
<path stroke="#e63471" vector-effect="non-scaling-stroke" d="
  M 356.67 161.46
  Q 354.79 163.54 354.37 164.75
  Q 352.69 169.65 350.83 174.23"
/>
<path stroke="#f64580" vector-effect="non-scaling-stroke" d="
  M 350.83 174.23
  Q 350.27 173.97 348.90 174.74
  Q 348.24 175.11 347.49 175.21
  Q 346.08 175.39 344.70 175.12
  Q 343.25 174.85 341.85 175.16
  Q 340.22 175.53 338.59 176.06
  Q 336.67 176.67 334.66 176.99
  Q 331.09 177.55 327.01 178.57
  Q 316.83 181.13 305.17 183.51
  Q 303.39 183.87 301.57 184.39
  Q 299.84 184.87 297.90 185.10
  Q 295.34 185.41 292.60 186.09
  Q 285.36 187.88 277.78 189.15
  Q 260.28 192.10 242.06 196.32
  Q 232.86 198.45 224.43 200.24
  Q 215.60 202.12 206.68 204.05
  Q 203.20 204.81 199.54 205.39
  Q 196.00 205.95 192.48 206.78
  C 191.15 207.09 189.82 207.05 188.49 207.38
  Q 185.26 208.18 182.13 208.77
  Q 179.16 209.33 175.58 210.38
  Q 170.29 211.94 164.78 212.87"
/>
<path stroke="#6f6536" vector-effect="non-scaling-stroke" d="
  M 307.52 226.55
  Q 299.96 229.09 295.01 230.01
  Q 286.28 231.62 275.23 231.33
  C 261.89 230.98 248.51 230.79 235.25 230.76
  Q 214.82 230.72 200.63 233.40
  Q 198.24 233.85 191.77 235.56
  C 186.25 237.01 181.31 239.34 176.52 242.29
  Q 170.43 246.05 166.40 252.93"
/>
<path stroke="#ec3562" vector-effect="non-scaling-stroke" d="
  M 165.75 239.83
  Q 171.85 229.80 182.10 225.37
  Q 192.51 220.88 203.76 219.30
  C 226.44 216.11 248.98 216.94 272.27 217.68
  Q 282.37 218.00 286.05 217.62
  Q 319.18 214.17 339.97 190.72
  Q 345.68 184.28 350.83 174.23"
/>
<path stroke="#2abd30" vector-effect="non-scaling-stroke" d="
  M 314.58 234.25
  Q 310.86 233.38 307.35 234.54
  Q 295.35 238.52 283.76 239.00
  Q 278.89 239.20 268.19 239.10
  Q 267.77 239.10 267.41 238.95
  Q 266.98 238.76 266.54 238.95
  Q 266.04 239.17 265.50 239.13
  Q 257.23 238.61 249.21 238.16
  Q 249.01 238.15 248.61 238.35
  Q 248.55 238.38 248.49 238.38
  Q 231.57 238.26 214.35 239.18
  Q 211.14 239.36 208.17 239.87
  Q 205.12 240.40 202.08 240.99
  Q 201.10 241.19 198.42 241.47
  Q 196.44 241.68 194.79 242.21
  C 193.95 242.47 193.31 242.27 192.49 242.50
  Q 187.68 243.86 183.37 245.80
  Q 181.22 246.76 179.09 247.58
  C 177.29 248.27 175.87 248.98 174.59 250.48
  Q 170.92 254.81 166.72 258.93"
/>
<path stroke="#76db4b" vector-effect="non-scaling-stroke" d="
  M 323.46 242.46
  Q 320.42 241.76 317.30 242.33
  Q 313.87 242.96 311.40 243.22
  Q 306.95 243.70 304.68 244.31
  Q 296.89 246.39 290.46 246.84
  Q 290.35 246.84 290.37 246.96
  Q 290.38 247.01 290.35 247.05
  Q 290.23 247.24 290.00 247.27
  Q 283.79 248.12 277.50 248.39
  Q 273.56 248.56 269.49 248.97
  Q 268.33 249.09 267.27 249.53
  Q 266.27 249.95 265.11 250.10
  Q 252.03 251.80 239.00 253.87
  Q 238.42 253.97 238.09 254.13
  Q 237.67 254.33 237.20 254.36
  Q 232.91 254.63 229.02 255.50
  Q 227.18 255.91 225.38 255.89
  Q 223.55 255.87 221.60 256.22
  Q 218.95 256.70 216.43 256.52
  Q 213.73 256.33 211.32 257.04
  Q 209.23 257.66 206.91 257.78
  Q 202.77 258.00 198.73 258.75
  Q 194.73 259.48 190.68 259.99
  Q 185.02 260.69 179.31 261.43
  Q 177.96 261.60 176.74 262.16
  Q 175.23 262.84 173.80 262.93
  Q 171.61 263.06 168.80 262.64
  Q 168.27 262.57 168.12 262.06
  Q 167.68 260.53 166.97 261.72"
/>
</g>
<path fill="#e65ffc" d="
  M 355.76 147.55
  Q 353.57 144.68 352.55 140.13
  Q 349.33 132.49 344.76 126.56
  Q 340.31 119.87 334.67 114.84
  C 327.83 108.76 320.66 103.16 312.16 100.27
  Q 299.99 94.63 286.74 93.53
  Q 282.33 93.16 273.63 93.14
  Q 219.13 92.99 164.59 93.05
  L 164.49 87.36
  A 0.65 0.65 0.0 0 1 165.16 86.69
  Q 174.25 86.95 183.50 86.92
  Q 213.70 86.84 244.09 87.04
  C 256.62 87.12 270.51 86.56 283.75 86.93
  Q 308.98 87.64 328.64 103.11
  Q 349.83 119.77 355.76 147.55
  Z"
/>
<path fill="#b33dfe" d="
  M 312.16 100.27
  Q 309.77 102.78 307.23 102.81
  Q 305.28 102.83 304.00 103.13
  Q 301.47 103.70 301.42 103.71
  Q 296.14 104.37 291.01 105.80
  Q 290.26 106.00 289.50 105.96
  Q 288.65 105.90 287.90 106.11
  Q 279.11 108.48 269.88 110.35
  Q 269.19 110.49 268.55 110.20
  Q 268.33 110.09 268.16 110.28
  Q 268.11 110.33 268.16 110.39
  Q 268.35 110.65 267.97 110.74
  Q 263.09 111.77 258.19 112.68
  Q 255.63 113.15 253.39 113.89
  Q 250.87 114.72 248.59 115.31
  Q 243.64 116.61 239.24 117.48
  C 238.45 117.63 237.65 117.50 236.94 117.75
  Q 234.27 118.70 231.31 119.02
  Q 231.00 119.05 231.16 119.31
  Q 231.19 119.36 231.24 119.39
  Q 231.68 119.61 231.25 119.90
  Q 230.21 120.60 229.16 120.11
  A 1.97 1.89 52.1 0 0 228.13 119.96
  Q 227.25 120.07 226.35 119.84
  Q 226.10 119.78 225.98 120.01
  L 225.84 120.26
  Q 225.68 120.56 225.36 120.62
  L 218.43 121.94
  Q 217.98 122.03 217.63 121.74
  Q 217.18 121.39 216.62 121.60
  Q 212.99 122.98 209.41 124.06
  C 207.90 124.51 206.30 124.34 204.82 124.99
  Q 203.27 125.68 201.58 126.04
  Q 197.06 126.99 192.74 128.09
  Q 192.48 128.16 192.20 128.08
  Q 191.78 127.95 191.35 128.04
  Q 179.53 130.62 167.73 131.70
  Q 167.10 131.76 166.56 131.48
  Q 166.26 131.34 166.36 131.65
  Q 166.41 131.81 166.36 131.98
  Q 166.27 132.28 165.97 132.20
  Q 165.43 132.07 165.30 131.54
  L 164.59 93.05
  Q 219.13 92.99 273.63 93.14
  Q 282.33 93.16 286.74 93.53
  Q 299.99 94.63 312.16 100.27
  Z"
/>
<path fill="#c43fe1" d="
  M 312.16 100.27
  C 320.66 103.16 327.83 108.76 334.67 114.84
  Q 340.31 119.87 344.76 126.56
  Q 343.31 127.41 341.47 128.12
  Q 339.75 128.79 337.91 128.63
  Q 335.13 128.38 332.78 129.09
  Q 331.00 129.63 329.18 129.99
  Q 323.51 131.11 318.04 132.39
  Q 312.47 133.70 306.92 134.85
  Q 295.25 137.26 283.76 139.77
  Q 275.78 141.51 266.73 143.13
  Q 265.93 143.28 265.33 143.55
  Q 264.67 143.85 263.96 143.97
  Q 255.19 145.49 245.64 147.59
  Q 244.25 147.89 242.89 148.29
  C 240.63 148.95 238.26 149.09 235.94 149.63
  Q 228.55 151.36 221.11 152.87
  Q 219.26 153.25 217.38 153.52
  Q 213.86 154.02 213.56 154.10
  A 38.11 6.84 -3.9 0 1 207.43 155.64
  Q 193.79 158.52 178.86 161.71
  Q 176.17 162.29 173.09 162.80
  Q 170.21 163.28 167.35 163.96
  Q 166.02 164.28 164.72 163.61
  L 165.30 131.54
  Q 165.43 132.07 165.97 132.20
  Q 166.27 132.28 166.36 131.98
  Q 166.41 131.81 166.36 131.65
  Q 166.26 131.34 166.56 131.48
  Q 167.10 131.76 167.73 131.70
  Q 179.53 130.62 191.35 128.04
  Q 191.78 127.95 192.20 128.08
  Q 192.48 128.16 192.74 128.09
  Q 197.06 126.99 201.58 126.04
  Q 203.27 125.68 204.82 124.99
  C 206.30 124.34 207.90 124.51 209.41 124.06
  Q 212.99 122.98 216.62 121.60
  Q 217.18 121.39 217.63 121.74
  Q 217.98 122.03 218.43 121.94
  L 225.36 120.62
  Q 225.68 120.56 225.84 120.26
  L 225.98 120.01
  Q 226.10 119.78 226.35 119.84
  Q 227.25 120.07 228.13 119.96
  A 1.97 1.89 52.1 0 1 229.16 120.11
  Q 230.21 120.60 231.25 119.90
  Q 231.68 119.61 231.24 119.39
  Q 231.19 119.36 231.16 119.31
  Q 231.00 119.05 231.31 119.02
  Q 234.27 118.70 236.94 117.75
  C 237.65 117.50 238.45 117.63 239.24 117.48
  Q 243.64 116.61 248.59 115.31
  Q 250.87 114.72 253.39 113.89
  Q 255.63 113.15 258.19 112.68
  Q 263.09 111.77 267.97 110.74
  Q 268.35 110.65 268.16 110.39
  Q 268.11 110.33 268.16 110.28
  Q 268.33 110.09 268.55 110.20
  Q 269.19 110.49 269.88 110.35
  Q 279.11 108.48 287.90 106.11
  Q 288.65 105.90 289.50 105.96
  Q 290.26 106.00 291.01 105.80
  Q 296.14 104.37 301.42 103.71
  Q 301.47 103.70 304.00 103.13
  Q 305.28 102.83 307.23 102.81
  Q 309.77 102.78 312.16 100.27
  Z"
/>
<path fill="#d541c2" d="
  M 344.76 126.56
  Q 349.33 132.49 352.55 140.13
  Q 352.33 140.27 352.15 140.27
  Q 351.99 140.26 351.94 140.12
  Q 351.92 140.07 351.94 140.02
  Q 352.23 139.53 351.76 139.85
  Q 350.10 141.00 349.50 141.13
  Q 338.71 143.45 327.01 146.53
  Q 326.54 146.65 326.01 146.57
  Q 325.50 146.49 325.00 146.64
  Q 321.75 147.62 318.40 148.01
  Q 314.91 148.41 311.84 149.12
  Q 301.68 151.46 290.27 153.68
  Q 283.27 155.04 274.66 156.73
  Q 274.21 156.82 273.75 156.81
  Q 273.27 156.81 273.10 157.26
  A 0.74 0.73 4.1 0 1 272.54 157.74
  Q 265.77 159.00 259.02 160.95
  C 257.90 161.27 256.86 160.97 255.77 161.16
  Q 242.99 163.43 230.25 166.14
  Q 229.48 166.30 228.72 166.46
  Q 222.68 167.71 216.62 168.71
  Q 213.89 169.16 211.54 169.85
  Q 208.97 170.61 206.38 171.17
  Q 205.36 171.38 204.33 171.88
  Q 203.33 172.35 202.23 172.61
  Q 201.87 172.69 201.85 172.33
  Q 201.82 172.04 201.54 172.10
  Q 195.68 173.22 186.75 175.43
  Q 185.37 175.78 183.97 176.28
  Q 182.63 176.76 181.19 176.89
  Q 181.12 176.90 181.11 176.97
  Q 181.10 177.02 181.08 177.07
  Q 181.00 177.24 180.80 177.30
  Q 178.03 178.07 174.99 178.82
  Q 171.92 179.58 164.76 179.60
  L 164.72 163.61
  Q 166.02 164.28 167.35 163.96
  Q 170.21 163.28 173.09 162.80
  Q 176.17 162.29 178.86 161.71
  Q 193.79 158.52 207.43 155.64
  A 38.11 6.84 -3.9 0 0 213.56 154.10
  Q 213.86 154.02 217.38 153.52
  Q 219.26 153.25 221.11 152.87
  Q 228.55 151.36 235.94 149.63
  C 238.26 149.09 240.63 148.95 242.89 148.29
  Q 244.25 147.89 245.64 147.59
  Q 255.19 145.49 263.96 143.97
  Q 264.67 143.85 265.33 143.55
  Q 265.93 143.28 266.73 143.13
  Q 275.78 141.51 283.76 139.77
  Q 295.25 137.26 306.92 134.85
  Q 312.47 133.70 318.04 132.39
  Q 323.51 131.11 329.18 129.99
  Q 331.00 129.63 332.78 129.09
  Q 335.13 128.38 337.91 128.63
  Q 339.75 128.79 341.47 128.12
  Q 343.31 127.41 344.76 126.56
  Z"
/>
<path fill="#e242aa" d="
  M 352.55 140.13
  Q 353.57 144.68 355.76 147.55
  Q 357.04 152.74 356.88 158.48
  Q 356.97 157.76 356.68 157.49
  Q 356.56 157.38 356.42 157.45
  Q 356.21 157.55 356.28 157.66
  Q 356.64 158.15 356.04 158.05
  Q 354.97 157.86 353.87 158.00
  Q 347.68 158.80 341.76 160.18
  Q 341.45 160.25 341.23 160.51
  Q 340.83 160.98 340.21 160.94
  C 338.86 160.84 337.60 160.82 336.26 161.20
  Q 333.82 161.89 331.27 162.44
  Q 281.24 173.22 259.19 177.49
  Q 258.44 177.64 257.81 178.12
  Q 257.61 178.27 257.25 178.13
  Q 247.61 179.98 238.55 181.99
  Q 235.59 182.64 227.53 184.12
  Q 222.00 185.14 216.56 186.51
  C 215.78 186.70 215.06 186.56 214.28 186.73
  Q 200.14 189.83 185.70 193.19
  Q 181.95 194.06 178.46 194.78
  Q 175.49 195.38 172.21 196.36
  Q 169.50 197.16 165.76 197.36
  Q 165.36 197.38 165.08 197.67
  Q 164.93 197.83 164.83 197.63
  Q 164.75 197.46 164.56 197.47
  L 164.76 179.60
  Q 171.92 179.58 174.99 178.82
  Q 178.03 178.07 180.80 177.30
  Q 181.00 177.24 181.08 177.07
  Q 181.10 177.02 181.11 176.97
  Q 181.12 176.90 181.19 176.89
  Q 182.63 176.76 183.97 176.28
  Q 185.37 175.78 186.75 175.43
  Q 195.68 173.22 201.54 172.10
  Q 201.82 172.04 201.85 172.33
  Q 201.87 172.69 202.23 172.61
  Q 203.33 172.35 204.33 171.88
  Q 205.36 171.38 206.38 171.17
  Q 208.97 170.61 211.54 169.85
  Q 213.89 169.16 216.62 168.71
  Q 222.68 167.71 228.72 166.46
  Q 229.48 166.30 230.25 166.14
  Q 242.99 163.43 255.77 161.16
  C 256.86 160.97 257.90 161.27 259.02 160.95
  Q 265.77 159.00 272.54 157.74
  A 0.74 0.73 4.1 0 0 273.10 157.26
  Q 273.27 156.81 273.75 156.81
  Q 274.21 156.82 274.66 156.73
  Q 283.27 155.04 290.27 153.68
  Q 301.68 151.46 311.84 149.12
  Q 314.91 148.41 318.40 148.01
  Q 321.75 147.62 325.00 146.64
  Q 325.50 146.49 326.01 146.57
  Q 326.54 146.65 327.01 146.53
  Q 338.71 143.45 349.50 141.13
  Q 350.10 141.00 351.76 139.85
  Q 352.23 139.53 351.94 140.02
  Q 351.92 140.07 351.94 140.12
  Q 351.99 140.26 352.15 140.27
  Q 352.33 140.27 352.55 140.13
  Z"
/>
<path fill="#ef448f" d="
  M 356.88 158.48
  L 356.67 161.46
  Q 354.79 163.54 354.37 164.75
  Q 352.69 169.65 350.83 174.23
  Q 350.27 173.97 348.90 174.74
  Q 348.24 175.11 347.49 175.21
  Q 346.08 175.39 344.70 175.12
  Q 343.25 174.85 341.85 175.16
  Q 340.22 175.53 338.59 176.06
  Q 336.67 176.67 334.66 176.99
  Q 331.09 177.55 327.01 178.57
  Q 316.83 181.13 305.17 183.51
  Q 303.39 183.87 301.57 184.39
  Q 299.84 184.87 297.90 185.10
  Q 295.34 185.41 292.60 186.09
  Q 285.36 187.88 277.78 189.15
  Q 260.28 192.10 242.06 196.32
  Q 232.86 198.45 224.43 200.24
  Q 215.60 202.12 206.68 204.05
  Q 203.20 204.81 199.54 205.39
  Q 196.00 205.95 192.48 206.78
  C 191.15 207.09 189.82 207.05 188.49 207.38
  Q 185.26 208.18 182.13 208.77
  Q 179.16 209.33 175.58 210.38
  Q 170.29 211.94 164.78 212.87
  L 164.56 197.47
  Q 164.75 197.46 164.83 197.63
  Q 164.93 197.83 165.08 197.67
  Q 165.36 197.38 165.76 197.36
  Q 169.50 197.16 172.21 196.36
  Q 175.49 195.38 178.46 194.78
  Q 181.95 194.06 185.70 193.19
  Q 200.14 189.83 214.28 186.73
  C 215.06 186.56 215.78 186.70 216.56 186.51
  Q 222.00 185.14 227.53 184.12
  Q 235.59 182.64 238.55 181.99
  Q 247.61 179.98 257.25 178.13
  Q 257.61 178.27 257.81 178.12
  Q 258.44 177.64 259.19 177.49
  Q 281.24 173.22 331.27 162.44
  Q 333.82 161.89 336.26 161.20
  C 337.60 160.82 338.86 160.84 340.21 160.94
  Q 340.83 160.98 341.23 160.51
  Q 341.45 160.25 341.76 160.18
  Q 347.68 158.80 353.87 158.00
  Q 354.97 157.86 356.04 158.05
  Q 356.64 158.15 356.28 157.66
  Q 356.21 157.55 356.42 157.45
  Q 356.56 157.38 356.68 157.49
  Q 356.97 157.76 356.88 158.48
  Z"
/>
<path fill="#dc2453" d="
  M 356.67 161.46
  Q 355.69 179.21 346.19 194.19
  Q 340.37 203.37 333.23 209.65
  Q 329.35 213.05 325.26 216.39
  Q 323.01 218.23 319.85 219.64
  Q 313.31 222.57 307.52 226.55
  Q 299.96 229.09 295.01 230.01
  Q 286.28 231.62 275.23 231.33
  C 261.89 230.98 248.51 230.79 235.25 230.76
  Q 214.82 230.72 200.63 233.40
  Q 198.24 233.85 191.77 235.56
  C 186.25 237.01 181.31 239.34 176.52 242.29
  Q 170.43 246.05 166.40 252.93
  L 165.75 239.83
  Q 171.85 229.80 182.10 225.37
  Q 192.51 220.88 203.76 219.30
  C 226.44 216.11 248.98 216.94 272.27 217.68
  Q 282.37 218.00 286.05 217.62
  Q 319.18 214.17 339.97 190.72
  Q 345.68 184.28 350.83 174.23
  Q 352.69 169.65 354.37 164.75
  Q 354.79 163.54 356.67 161.46
  Z"
/>
<path fill="#fc4671" d="
  M 350.83 174.23
  Q 345.68 184.28 339.97 190.72
  Q 319.18 214.17 286.05 217.62
  Q 282.37 218.00 272.27 217.68
  C 248.98 216.94 226.44 216.11 203.76 219.30
  Q 192.51 220.88 182.10 225.37
  Q 171.85 229.80 165.75 239.83
  Q 164.49 225.56 164.78 212.87
  Q 170.29 211.94 175.58 210.38
  Q 179.16 209.33 182.13 208.77
  Q 185.26 208.18 188.49 207.38
  C 189.82 207.05 191.15 207.09 192.48 206.78
  Q 196.00 205.95 199.54 205.39
  Q 203.20 204.81 206.68 204.05
  Q 215.60 202.12 224.43 200.24
  Q 232.86 198.45 242.06 196.32
  Q 260.28 192.10 277.78 189.15
  Q 285.36 187.88 292.60 186.09
  Q 295.34 185.41 297.90 185.10
  Q 299.84 184.87 301.57 184.39
  Q 303.39 183.87 305.17 183.51
  Q 316.83 181.13 327.01 178.57
  Q 331.09 177.55 334.66 176.99
  Q 336.67 176.67 338.59 176.06
  Q 340.22 175.53 341.85 175.16
  Q 343.25 174.85 344.70 175.12
  Q 346.08 175.39 347.49 175.21
  Q 348.24 175.11 348.90 174.74
  Q 350.27 173.97 350.83 174.23
  Z"
/>
<path fill="#01a619" d="
  M 307.52 226.55
  Q 310.10 230.84 314.58 234.25
  Q 310.86 233.38 307.35 234.54
  Q 295.35 238.52 283.76 239.00
  Q 278.89 239.20 268.19 239.10
  Q 267.77 239.10 267.41 238.95
  Q 266.98 238.76 266.54 238.95
  Q 266.04 239.17 265.50 239.13
  Q 257.23 238.61 249.21 238.16
  Q 249.01 238.15 248.61 238.35
  Q 248.55 238.38 248.49 238.38
  Q 231.57 238.26 214.35 239.18
  Q 211.14 239.36 208.17 239.87
  Q 205.12 240.40 202.08 240.99
  Q 201.10 241.19 198.42 241.47
  Q 196.44 241.68 194.79 242.21
  C 193.95 242.47 193.31 242.27 192.49 242.50
  Q 187.68 243.86 183.37 245.80
  Q 181.22 246.76 179.09 247.58
  C 177.29 248.27 175.87 248.98 174.59 250.48
  Q 170.92 254.81 166.72 258.93
  L 166.40 252.93
  Q 170.43 246.05 176.52 242.29
  C 181.31 239.34 186.25 237.01 191.77 235.56
  Q 198.24 233.85 200.63 233.40
  Q 214.82 230.72 235.25 230.76
  C 248.51 230.79 261.89 230.98 275.23 231.33
  Q 286.28 231.62 295.01 230.01
  Q 299.96 229.09 307.52 226.55
  Z"
/>
<path fill="#53d447" d="
  M 314.58 234.25
  L 323.46 242.46
  Q 320.42 241.76 317.30 242.33
  Q 313.87 242.96 311.40 243.22
  Q 306.95 243.70 304.68 244.31
  Q 296.89 246.39 290.46 246.84
  Q 290.35 246.84 290.37 246.96
  Q 290.38 247.01 290.35 247.05
  Q 290.23 247.24 290.00 247.27
  Q 283.79 248.12 277.50 248.39
  Q 273.56 248.56 269.49 248.97
  Q 268.33 249.09 267.27 249.53
  Q 266.27 249.95 265.11 250.10
  Q 252.03 251.80 239.00 253.87
  Q 238.42 253.97 238.09 254.13
  Q 237.67 254.33 237.20 254.36
  Q 232.91 254.63 229.02 255.50
  Q 227.18 255.91 225.38 255.89
  Q 223.55 255.87 221.60 256.22
  Q 218.95 256.70 216.43 256.52
  Q 213.73 256.33 211.32 257.04
  Q 209.23 257.66 206.91 257.78
  Q 202.77 258.00 198.73 258.75
  Q 194.73 259.48 190.68 259.99
  Q 185.02 260.69 179.31 261.43
  Q 177.96 261.60 176.74 262.16
  Q 175.23 262.84 173.80 262.93
  Q 171.61 263.06 168.80 262.64
  Q 168.27 262.57 168.12 262.06
  Q 167.68 260.53 166.97 261.72
  L 166.72 258.93
  Q 170.92 254.81 174.59 250.48
  C 175.87 248.98 177.29 248.27 179.09 247.58
  Q 181.22 246.76 183.37 245.80
  Q 187.68 243.86 192.49 242.50
  C 193.31 242.27 193.95 242.47 194.79 242.21
  Q 196.44 241.68 198.42 241.47
  Q 201.10 241.19 202.08 240.99
  Q 205.12 240.40 208.17 239.87
  Q 211.14 239.36 214.35 239.18
  Q 231.57 238.26 248.49 238.38
  Q 248.55 238.38 248.61 238.35
  Q 249.01 238.15 249.21 238.16
  Q 257.23 238.61 265.50 239.13
  Q 266.04 239.17 266.54 238.95
  Q 266.98 238.76 267.41 238.95
  Q 267.77 239.10 268.19 239.10
  Q 278.89 239.20 283.76 239.00
  Q 295.35 238.52 307.35 234.54
  Q 310.86 233.38 314.58 234.25
  Z"
/>
<path fill="#98e24f" d="
  M 323.46 242.46
  L 343.66 262.95
  A 0.67 0.66 -22.1 0 1 343.18 264.08
  Q 288.44 263.80 212.26 264.18
  Q 190.79 264.28 168.26 263.92
  Q 167.20 263.90 167.09 262.84
  L 166.97 261.72
  Q 167.68 260.53 168.12 262.06
  Q 168.27 262.57 168.80 262.64
  Q 171.61 263.06 173.80 262.93
  Q 175.23 262.84 176.74 262.16
  Q 177.96 261.60 179.31 261.43
  Q 185.02 260.69 190.68 259.99
  Q 194.73 259.48 198.73 258.75
  Q 202.77 258.00 206.91 257.78
  Q 209.23 257.66 211.32 257.04
  Q 213.73 256.33 216.43 256.52
  Q 218.95 256.70 221.60 256.22
  Q 223.55 255.87 225.38 255.89
  Q 227.18 255.91 229.02 255.50
  Q 232.91 254.63 237.20 254.36
  Q 237.67 254.33 238.09 254.13
  Q 238.42 253.97 239.00 253.87
  Q 252.03 251.80 265.11 250.10
  Q 266.27 249.95 267.27 249.53
  Q 268.33 249.09 269.49 248.97
  Q 273.56 248.56 277.50 248.39
  Q 283.79 248.12 290.00 247.27
  Q 290.23 247.24 290.35 247.05
  Q 290.38 247.01 290.37 246.96
  Q 290.35 246.84 290.46 246.84
  Q 296.89 246.39 304.68 244.31
  Q 306.95 243.70 311.40 243.22
  Q 313.87 242.96 317.30 242.33
  Q 320.42 241.76 323.46 242.46
  Z"
/>
<path fill="#ffffff" d="
  M 224.29 356.64
  C 212.65 352.03 208.96 337.51 209.76 326.08
  C 210.31 318.37 214.44 307.04 222.16 303.61
  Q 233.84 298.43 244.85 303.52
  C 247.49 304.74 249.55 307.04 251.15 309.40
  Q 261.42 324.54 255.06 343.12
  Q 253.29 348.29 248.28 353.05
  C 242.00 359.02 231.85 359.64 224.29 356.64
  Z
  M 242.33 323.21
  C 241.81 318.71 239.79 313.62 234.80 312.79
  C 229.92 311.99 226.50 315.73 225.45 320.07
  Q 223.18 329.38 225.45 339.21
  C 226.63 344.30 230.64 348.10 236.16 346.26
  C 243.64 343.77 243.09 329.65 242.33 323.21
  Z"
/>
<path fill="#ffffff" d="
  M 286.47 337.41
  Q 280.82 335.88 275.02 334.53
  C 268.96 333.12 263.24 329.36 262.06 323.04
  C 260.10 312.56 265.57 303.91 275.99 301.71
  C 283.47 300.13 293.52 301.11 299.00 307.02
  Q 301.73 309.97 303.26 314.02
  A 0.80 0.80 0.0 0 1 302.77 315.06
  L 291.94 318.81
  A 0.45 0.44 70.6 0 1 291.37 318.53
  Q 288.84 311.13 279.91 312.40
  C 274.89 313.12 274.08 319.09 279.23 320.44
  C 286.30 322.29 295.31 323.06 300.53 328.94
  C 306.22 335.35 306.29 344.47 300.73 350.72
  C 294.76 357.45 287.12 358.82 278.57 358.18
  C 272.16 357.71 264.29 354.45 261.22 348.44
  Q 259.84 345.73 258.94 343.08
  A 0.89 0.88 74.0 0 1 259.57 341.93
  L 271.16 339.17
  Q 271.82 339.01 272.03 339.65
  Q 274.98 348.40 285.29 346.75
  C 291.08 345.83 293.00 339.18 286.47 337.41
  Z"
/>
<path fill="#ffffff" d="
  M 174.23 336.03
  A 0.49 0.49 0.0 0 0 173.75 336.52
  L 173.75 357.01
  A 0.51 0.51 0.0 0 1 173.24 357.52
  L 160.58 357.52
  A 0.94 0.93 -90.0 0 1 159.65 356.58
  L 159.65 302.79
  A 0.89 0.89 0.0 0 1 160.55 301.90
  Q 173.44 301.95 186.49 301.99
  Q 190.81 302.01 195.48 303.51
  C 200.76 305.21 204.24 312.25 204.67 317.09
  C 205.31 324.15 202.13 329.37 196.45 333.03
  Q 195.73 333.50 196.06 334.29
  L 205.27 356.75
  A 0.55 0.55 0.0 0 1 204.76 357.51
  L 190.66 357.50
  A 0.84 0.84 0.0 0 1 189.88 356.97
  L 181.79 336.33
  A 0.73 0.72 -10.9 0 0 181.10 335.87
  L 174.23 336.03
  Z
  M 173.79 313.75
  L 173.79 324.33
  A 0.89 0.89 0.0 0 0 174.68 325.22
  L 183.82 325.22
  A 6.29 6.04 -0.0 0 0 190.11 319.18
  L 190.11 318.90
  A 6.29 6.04 0.0 0 0 183.82 312.86
  L 174.68 312.86
  A 0.89 0.89 0.0 0 0 173.79 313.75
  Z"
/>
<path fill="#ffffff" d="
  M 326.63 345.49
  L 351.40 345.49
  A 0.61 0.61 0.0 0 1 352.01 346.10
  L 351.99 356.85
  A 0.61 0.61 0.0 0 1 351.38 357.46
  L 312.31 357.49
  A 0.61 0.61 0.0 0 1 311.70 356.88
  L 311.67 302.57
  A 0.61 0.61 0.0 0 1 312.28 301.96
  L 351.39 301.93
  A 0.61 0.61 0.0 0 1 352.00 302.54
  L 352.00 312.91
  A 0.61 0.61 0.0 0 1 351.39 313.52
  L 326.57 313.50
  A 0.61 0.61 0.0 0 0 325.96 314.11
  L 326.02 322.53
  A 0.61 0.61 0.0 0 0 326.62 323.13
  L 345.76 323.19
  A 0.61 0.61 0.0 0 1 346.36 323.80
  L 346.27 334.16
  A 0.61 0.61 0.0 0 1 345.66 334.76
  L 326.53 334.81
  A 0.61 0.61 0.0 0 0 325.93 335.42
  L 326.02 344.89
  A 0.61 0.61 0.0 0 0 326.63 345.49
  Z"
/>
<path fill="#ffffff" d="
  M 266.4071 381.9263
  A 13.31 11.58 -6.4 0 1 254.4708 394.9178
  A 13.31 11.58 -6.4 0 1 239.9529 384.8937
  A 13.31 11.58 -6.4 0 1 251.8892 371.9022
  A 13.31 11.58 -6.4 0 1 266.4071 381.9263
  Z
  M 250.2808 389.0392
  A 6.43 6.16 117.0 0 0 258.6886 386.1066
  A 6.43 6.16 117.0 0 0 256.1192 377.5808
  A 6.43 6.16 117.0 0 0 247.7114 380.5134
  A 6.43 6.16 117.0 0 0 250.2808 389.0392
  Z"
/>
<path fill="#ffffff" d="
  M 128.72 372.45
  Q 135.18 372.23 140.50 372.35
  Q 148.54 372.54 149.59 380.42
  C 150.52 387.48 146.98 394.05 139.16 394.22
  Q 133.24 394.35 127.39 394.26
  A 0.43 0.43 0.0 0 1 126.96 393.79
  Q 127.87 383.44 127.83 373.37
  A 0.92 0.92 0.0 0 1 128.72 372.45
  Z
  M 134.33 377.71
  L 134.14 388.65
  A 0.64 0.64 0.0 0 0 134.76 389.30
  L 136.93 389.34
  A 5.49 5.39 -89.0 0 0 142.42 383.94
  L 142.44 382.70
  A 5.49 5.39 -89.0 0 0 137.15 377.12
  L 134.98 377.08
  A 0.64 0.64 0.0 0 0 134.33 377.71
  Z"
/>
<path fill="#ffffff" d="
  M 161.02 380.98
  L 168.43 380.93
  A 0.83 0.83 0.0 0 1 169.27 381.78
  L 169.18 385.23
  A 0.83 0.83 0.0 0 1 168.33 386.04
  L 160.65 385.88
  A 0.83 0.83 0.0 0 0 159.80 386.68
  L 159.72 388.78
  A 0.83 0.83 0.0 0 0 160.59 389.64
  L 169.65 389.21
  A 0.83 0.83 0.0 0 1 170.51 390.13
  L 170.17 393.57
  A 0.83 0.83 0.0 0 1 169.34 394.32
  L 153.03 394.27
  A 0.83 0.83 0.0 0 1 152.20 393.40
  L 153.35 373.17
  A 0.83 0.83 0.0 0 1 154.17 372.39
  L 170.50 372.35
  A 0.83 0.83 0.0 0 1 171.33 373.27
  L 170.98 376.73
  A 0.83 0.83 0.0 0 1 170.14 377.48
  L 161.26 377.34
  A 0.83 0.83 0.0 0 0 160.42 378.07
  L 160.19 380.06
  A 0.83 0.83 0.0 0 0 161.02 380.98
  Z"
/>
<path fill="#ffffff" d="
  M 184.70 387.41
  L 191.73 372.66
  A 0.34 0.34 0.0 0 1 192.03 372.47
  L 198.58 372.40
  A 0.34 0.34 0.0 0 1 198.89 372.89
  L 187.85 394.17
  A 0.34 0.34 0.0 0 1 187.54 394.35
  L 180.49 394.33
  A 0.34 0.34 0.0 0 1 180.17 394.11
  L 172.46 372.74
  A 0.34 0.34 0.0 0 1 172.78 372.29
  L 179.58 372.37
  A 0.34 0.34 0.0 0 1 179.90 372.61
  L 184.06 387.36
  A 0.34 0.34 0.0 0 0 184.70 387.41
  Z"
/>
<path fill="#ffffff" d="
  M 207.17 377.98
  L 207.05 380.17
  A 0.80 0.80 0.0 0 0 207.85 381.02
  L 215.13 381.06
  A 0.80 0.80 0.0 0 1 215.92 381.89
  L 215.81 385.00
  A 0.80 0.80 0.0 0 1 215.01 385.78
  L 207.40 385.83
  A 0.80 0.80 0.0 0 0 206.61 386.58
  L 206.47 388.84
  A 0.80 0.80 0.0 0 0 207.29 389.69
  L 216.44 389.48
  A 0.80 0.80 0.0 0 1 217.25 390.32
  L 217.08 393.54
  A 0.80 0.80 0.0 0 1 216.28 394.30
  L 200.09 394.30
  A 0.80 0.80 0.0 0 1 199.29 393.47
  L 200.04 373.09
  A 0.80 0.80 0.0 0 1 200.84 372.32
  L 217.30 372.40
  A 0.80 0.80 0.0 0 1 218.09 373.23
  L 217.94 376.62
  A 0.80 0.80 0.0 0 1 217.12 377.39
  L 207.98 377.22
  A 0.80 0.80 0.0 0 0 207.17 377.98
  Z"
/>
<path fill="#ffffff" d="
  M 229.55 389.46
  L 237.49 389.38
  Q 238.37 389.37 238.30 390.25
  L 238.03 393.39
  Q 237.96 394.24 237.11 394.24
  L 221.48 394.33
  A 0.81 0.80 -86.6 0 1 220.68 393.42
  Q 222.11 382.36 221.97 372.94
  Q 221.96 372.40 222.51 372.40
  L 228.74 372.40
  Q 229.33 372.40 229.30 372.99
  L 228.67 388.55
  Q 228.63 389.47 229.55 389.46
  Z"
/>
<path fill="#ffffff" d="
  M 276.32 377.90
  L 275.77 393.76
  Q 275.75 394.27 275.24 394.28
  L 269.80 394.37
  A 0.68 0.67 -87.7 0 1 269.13 393.63
  Q 269.99 384.09 269.99 373.13
  A 0.68 0.68 0.0 0 1 270.65 372.45
  Q 276.36 372.25 281.49 372.32
  C 291.76 372.45 289.78 387.35 278.30 385.94
  Q 277.62 385.86 277.52 385.18
  L 277.07 382.32
  Q 276.95 381.61 277.66 381.73
  C 280.16 382.13 281.81 380.25 280.82 377.80
  Q 280.61 377.27 280.04 377.26
  L 277.10 377.17
  Q 276.35 377.15 276.32 377.90
  Z"
/>
<path fill="#ffffff" d="
  M 297.04 381.89
  Q 296.41 379.65 296.27 381.98
  L 295.52 393.99
  Q 295.50 394.36 295.13 394.37
  L 290.44 394.38
  A 0.29 0.28 2.7 0 1 290.15 394.07
  L 291.89 372.87
  A 0.50 0.49 1.9 0 1 292.38 372.42
  L 300.08 372.38
  Q 300.61 372.37 300.74 372.89
  L 303.56 384.25
  Q 303.78 385.15 304.09 384.28
  L 308.13 372.93
  Q 308.32 372.41 308.87 372.40
  L 316.55 372.37
  Q 317.23 372.37 317.21 373.05
  L 316.49 393.78
  A 0.52 0.52 0.0 0 1 315.97 394.29
  L 310.98 394.28
  Q 310.43 394.28 310.47 393.73
  Q 310.98 387.13 310.76 380.89
  Q 310.72 379.69 310.37 380.84
  L 306.49 393.72
  Q 306.29 394.39 305.58 394.38
  L 300.63 394.35
  A 0.77 0.77 0.0 0 1 299.89 393.73
  Q 298.67 387.72 297.04 381.89
  Z"
/>
<path fill="#ffffff" d="
  M 328.54 377.88
  L 328.32 380.16
  A 0.72 0.72 0.0 0 0 329.03 380.95
  L 336.92 381.05
  A 0.72 0.72 0.0 0 1 337.63 381.80
  L 337.49 385.03
  A 0.72 0.72 0.0 0 1 336.76 385.72
  L 328.75 385.66
  A 0.72 0.72 0.0 0 0 328.02 386.35
  L 327.92 388.89
  A 0.72 0.72 0.0 0 0 328.65 389.64
  L 338.29 389.51
  A 0.72 0.72 0.0 0 1 339.02 390.27
  L 338.85 393.54
  A 0.72 0.72 0.0 0 1 338.14 394.23
  L 321.63 394.38
  A 0.72 0.72 0.0 0 1 320.90 393.62
  L 321.99 373.04
  A 0.72 0.72 0.0 0 1 322.72 372.36
  L 339.30 372.42
  A 0.72 0.72 0.0 0 1 340.02 373.22
  L 339.61 376.68
  A 0.72 0.72 0.0 0 1 338.89 377.31
  L 329.27 377.24
  A 0.72 0.72 0.0 0 0 328.54 377.88
  Z"
/>
<path fill="#ffffff" d="
  M 348.59 394.23
  L 342.84 394.28
  A 0.31 0.31 0.0 0 1 342.53 393.95
  L 343.62 372.76
  A 0.31 0.31 0.0 0 1 343.93 372.47
  L 351.78 372.37
  A 0.31 0.31 0.0 0 1 352.06 372.53
  L 359.00 385.23
  A 0.31 0.31 0.0 0 0 359.58 385.10
  L 360.05 372.77
  A 0.31 0.31 0.0 0 1 360.35 372.48
  L 366.13 372.40
  A 0.31 0.31 0.0 0 1 366.44 372.73
  L 365.10 393.97
  A 0.31 0.31 0.0 0 1 364.79 394.26
  L 357.57 394.28
  A 0.31 0.31 0.0 0 1 357.30 394.13
  L 349.91 381.38
  A 0.31 0.31 0.0 0 0 349.33 381.53
  L 348.90 393.93
  A 0.31 0.31 0.0 0 1 348.59 394.23
  Z"
/>
<path fill="#ffffff" d="
  M 382.22 377.90
  L 381.45 393.64
  A 0.67 0.67 0.0 0 1 380.79 394.28
  L 375.20 394.34
  A 0.67 0.67 0.0 0 1 374.52 393.63
  L 375.41 378.03
  A 0.67 0.67 0.0 0 0 374.72 377.32
  L 369.61 377.48
  A 0.67 0.67 0.0 0 1 368.92 376.81
  L 368.89 373.03
  A 0.67 0.67 0.0 0 1 369.56 372.36
  L 388.53 372.36
  A 0.67 0.67 0.0 0 1 389.20 373.06
  L 389.04 376.70
  A 0.67 0.67 0.0 0 1 388.36 377.34
  L 382.90 377.26
  A 0.67 0.67 0.0 0 0 382.22 377.90
  Z"
/>
</svg>
