<?xml version="1.0" encoding="UTF-8" standalone="no"?>
<!DOCTYPE svg PUBLIC "-//W3C//DTD SVG 1.1//EN" "http://www.w3.org/Graphics/SVG/1.1/DTD/svg11.dtd">
<svg xmlns="http://www.w3.org/2000/svg" version="1.1" viewBox="0.00 0.00 110.00 21.00">
<g stroke-width="2.10" fill="none" stroke-linecap="butt">
<path stroke="#162732" stroke-opacity="0.600" vector-effect="non-scaling-stroke" d="
  M 288.97 249.48
  L 288.99 264.47
  Q 288.99 265.22 289.75 265.22
  L 296.53 265.23
  A 0.67 0.67 0.0 0 0 297.20 264.56
  L 297.29 249.19"
/>
<path stroke="#213543" vector-effect="non-scaling-stroke" d="
  M 344.94 209.16
  Q 347.18 212.14 349.83 210.64
  Q 350.26 210.39 350.76 210.42
  Q 352.96 210.55 354.80 209.24"
/>
<path stroke="#162732" stroke-opacity="0.600" vector-effect="non-scaling-stroke" d="
  M 221.39 197.73
  A 3.60 3.60 0.0 0 0 217.79 194.13
  A 3.60 3.60 0.0 0 0 214.19 197.73
  A 3.60 3.60 0.0 0 0 217.79 201.33
  A 3.60 3.60 0.0 0 0 221.39 197.73"
/>
<path stroke="#162732" stroke-opacity="0.600" vector-effect="non-scaling-stroke" d="
  M 284.06 197.72
  A 3.64 3.64 0.0 0 0 280.42 194.08
  A 3.64 3.64 0.0 0 0 276.78 197.72
  A 3.64 3.64 0.0 0 0 280.42 201.36
  A 3.64 3.64 0.0 0 0 284.06 197.72"
/>
<path stroke="#627683" vector-effect="non-scaling-stroke" d="
  M 312.08 274.37
  Q 315.41 277.44 314.20 268.85
  Q 314.13 268.36 313.65 268.21
  Q 311.53 267.57 308.66 267.68"
/>
<path stroke="#627683" vector-effect="non-scaling-stroke" d="
  M 353.39 238.34
  Q 353.03 239.14 352.68 239.85
  Q 352.30 240.63 352.13 241.42
  Q 349.85 252.39 343.94 263.98
  Q 343.51 264.82 342.58 267.90"
/>
<path stroke="#627683" vector-effect="non-scaling-stroke" d="
  M 349.26 272.91
  Q 358.38 257.32 361.73 240.00
  Q 361.87 239.28 361.59 238.84"
/>
<path stroke="#627683" vector-effect="non-scaling-stroke" d="
  M 143.82 259.97
  Q 148.61 270.91 155.51 280.91"
/>
<path stroke="#627683" vector-effect="non-scaling-stroke" d="
  M 177.02 303.31
  C 177.45 303.95 177.91 304.73 178.52 305.18
  Q 189.49 313.33 202.32 319.88
  C 206.76 322.15 211.86 323.12 216.57 324.76
  Q 222.00 326.65 227.84 327.80
  Q 242.03 330.61 256.48 329.52"
/>
<path stroke="#627683" vector-effect="non-scaling-stroke" d="
  M 265.82 327.52
  Q 265.96 327.95 266.20 328.18
  Q 266.43 328.41 266.77 328.36
  Q 276.80 326.89 286.55 323.15
  Q 287.05 322.95 286.87 322.44
  L 284.24 315.31
  A 0.38 0.38 0.0 0 0 283.75 315.08
  Q 275.01 318.35 265.50 320.20"
/>
<path stroke="#627683" vector-effect="non-scaling-stroke" d="
  M 256.13 321.40
  Q 246.75 321.59 243.48 321.31
  Q 224.53 319.71 207.27 312.05
  C 201.52 309.50 195.59 305.74 189.99 302.39
  Q 188.66 301.58 186.20 299.78
  Q 184.21 298.32 182.28 297.31"
/>
<path stroke="#627683" vector-effect="non-scaling-stroke" d="
  M 160.98 274.54
  L 151.80 256.44"
/>
<path stroke="#213543" vector-effect="non-scaling-stroke" d="
  M 239.15 283.07
  Q 240.19 284.08 241.58 283.45"
/>
</g>
<path fill="#192d3b" d="
  M 214.27 337.96
  C 206.82 335.70 200.29 333.31 193.58 329.84
  Q 188.14 327.03 182.34 323.90
  Q 178.86 322.03 175.80 319.79
  C 161.46 309.31 149.73 297.30 140.10 281.74
  Q 136.74 276.31 134.32 270.51
  Q 131.34 263.33 129.63 258.39
  Q 116.47 220.16 129.90 181.59
  C 131.47 177.08 133.84 172.84 135.43 168.29
  C 136.55 165.10 138.35 161.74 140.20 158.95
  Q 151.27 142.35 157.98 135.72
  Q 166.05 127.74 177.37 119.08
  Q 180.95 116.34 183.71 115.03
  Q 185.56 114.14 187.34 113.10
  Q 203.68 103.59 222.09 99.31
  Q 254.76 91.71 287.12 102.08
  Q 299.94 106.19 309.86 111.93
  C 313.43 113.99 317.11 115.44 320.54 117.92
  Q 331.76 126.04 340.34 134.12
  A 11.80 7.05 45.8 0 1 341.51 135.31
  Q 351.63 146.54 359.09 157.94
  C 361.32 161.35 363.16 165.07 364.72 168.90
  Q 366.81 173.99 368.69 178.75
  Q 377.95 202.19 376.40 225.70
  Q 375.48 239.66 371.45 254.13
  Q 369.93 259.59 367.76 264.48
  C 365.85 268.80 364.42 273.59 362.05 277.60
  Q 349.40 299.02 330.96 314.23
  Q 326.11 318.23 320.79 322.07
  C 320.11 322.56 319.10 322.75 318.36 323.24
  Q 299.86 335.35 275.88 340.33
  C 255.35 344.59 234.29 344.00 214.27 337.96
  Z
  M 288.97 249.48
  L 288.99 264.47
  Q 288.99 265.22 289.75 265.22
  L 296.53 265.23
  A 0.67 0.67 0.0 0 0 297.20 264.56
  L 297.29 249.19
  L 297.26 213.10
  A 0.55 0.54 -90.0 0 1 297.80 212.55
  L 344.78 212.45
  A 0.39 0.39 0.0 0 0 345.17 212.02
  L 344.94 209.16
  Q 347.18 212.14 349.83 210.64
  Q 350.26 210.39 350.76 210.42
  Q 352.96 210.55 354.80 209.24
  Q 355.10 210.15 354.96 211.25
  Q 354.83 212.37 355.95 212.38
  L 362.78 212.44
  Q 363.64 212.45 363.55 211.60
  Q 360.27 180.67 342.04 155.71
  Q 330.69 140.17 313.72 128.98
  C 304.95 123.20 296.00 118.04 286.16 115.21
  Q 280.58 113.60 274.86 112.29
  Q 249.83 106.57 225.20 112.18
  Q 221.03 113.13 216.71 114.23
  C 205.57 117.06 195.43 122.28 185.20 129.28
  Q 172.25 138.15 160.85 151.99
  C 154.22 160.05 148.32 170.31 144.22 179.96
  Q 137.76 195.17 136.29 211.90
  A 0.51 0.50 -87.4 0 0 136.79 212.46
  L 199.30 212.50
  Q 199.86 212.50 199.86 213.05
  L 199.75 255.24
  Q 199.75 255.50 200.01 255.50
  L 208.50 255.50
  A 0.25 0.24 -90.0 0 0 208.74 255.25
  L 208.78 186.48
  A 0.70 0.70 0.0 0 1 209.46 185.78
  Q 213.82 185.62 217.73 185.83
  C 232.44 186.63 234.41 207.25 218.95 209.69
  Q 218.03 209.83 218.03 210.76
  L 218.04 271.26
  Q 218.04 271.98 217.32 271.96
  Q 211.04 271.83 207.61 277.07
  C 201.66 286.18 211.72 296.93 221.21 293.18
  C 227.01 290.88 229.46 284.23 227.18 278.52
  Q 226.49 276.78 226.49 275.06
  Q 226.51 244.08 226.47 212.75
  Q 226.47 212.47 226.74 212.47
  L 235.47 212.46
  A 0.30 0.30 0.0 0 1 235.77 212.76
  Q 235.67 248.86 235.80 280.11
  C 235.81 282.26 236.16 284.43 236.03 286.59
  C 235.81 290.32 235.79 293.91 235.75 297.67
  Q 235.73 299.95 236.14 302.18
  Q 236.54 304.40 235.96 306.96
  A 0.72 0.72 0.0 0 0 236.83 307.82
  Q 239.71 307.11 243.20 307.62
  A 0.51 0.50 10.0 0 0 243.76 307.23
  Q 243.92 306.47 243.49 305.47
  Q 243.33 305.09 243.24 305.49
  L 243.10 306.20
  Q 242.97 306.80 242.36 306.84
  Q 241.28 306.92 240.40 306.14
  Q 240.16 305.92 240.01 306.22
  Q 239.93 306.39 239.78 306.39
  Q 239.46 306.41 239.68 306.18
  Q 239.77 306.08 239.85 305.98
  Q 239.99 305.83 239.84 305.69
  Q 238.45 304.35 238.62 302.40
  Q 238.67 301.90 239.16 301.81
  Q 242.47 301.22 243.17 303.56
  Q 243.40 304.34 243.56 303.54
  C 244.43 299.19 244.09 294.45 244.11 290.05
  Q 244.11 288.58 243.84 287.03
  Q 243.55 285.35 243.79 283.86
  Q 244.19 281.45 244.19 279.07
  Q 244.13 219.04 244.22 158.58
  Q 244.22 158.02 243.70 157.81
  C 242.28 157.22 240.61 156.69 239.75 155.34
  Q 234.35 146.88 239.75 139.21
  Q 241.39 136.88 243.82 136.13
  C 252.14 133.58 260.89 137.72 260.70 147.34
  Q 260.54 155.10 254.33 157.48
  A 1.31 1.30 79.6 0 0 253.50 158.70
  L 253.51 211.74
  A 0.73 0.73 0.0 0 0 254.24 212.47
  L 270.28 212.47
  Q 270.83 212.47 270.83 213.03
  L 270.81 261.71
  Q 270.81 262.02 271.13 262.03
  L 279.48 262.28
  Q 279.75 262.29 279.75 262.02
  L 279.78 210.53
  Q 279.78 209.91 279.17 209.83
  C 271.41 208.75 265.92 200.46 269.37 193.14
  C 273.37 184.66 280.49 185.91 288.35 185.73
  A 0.71 0.71 0.0 0 1 289.07 186.44
  L 288.97 249.48
  Z
  M 252.49 146.86
  A 3.71 3.71 0.0 0 0 248.78 143.15
  A 3.71 3.71 0.0 0 0 245.07 146.86
  A 3.71 3.71 0.0 0 0 248.78 150.57
  A 3.71 3.71 0.0 0 0 252.49 146.86
  Z
  M 221.39 197.73
  A 3.60 3.60 0.0 0 0 217.79 194.13
  A 3.60 3.60 0.0 0 0 214.19 197.73
  A 3.60 3.60 0.0 0 0 217.79 201.33
  A 3.60 3.60 0.0 0 0 221.39 197.73
  Z
  M 284.06 197.72
  A 3.64 3.64 0.0 0 0 280.42 194.08
  A 3.64 3.64 0.0 0 0 276.78 197.72
  A 3.64 3.64 0.0 0 0 280.42 201.36
  A 3.64 3.64 0.0 0 0 284.06 197.72
  Z
  M 182.23 229.91
  A 0.31 0.31 0.0 0 1 182.54 230.22
  L 182.73 277.66
  A 0.31 0.31 0.0 0 0 183.03 277.97
  L 190.71 278.09
  A 0.31 0.31 0.0 0 0 191.03 277.78
  L 191.04 221.30
  A 0.31 0.31 0.0 0 0 190.73 220.99
  L 136.37 220.99
  A 0.31 0.31 0.0 0 0 136.06 221.31
  L 136.35 229.69
  A 0.31 0.31 0.0 0 0 136.66 229.99
  L 182.23 229.91
  Z
  M 261.83 221.46
  A 0.46 0.46 0.0 0 0 261.37 221.00
  L 253.99 221.00
  A 0.46 0.46 0.0 0 0 253.53 221.46
  L 253.53 280.80
  A 0.46 0.46 0.0 0 0 253.99 281.26
  L 261.37 281.26
  A 0.46 0.46 0.0 0 0 261.83 280.80
  L 261.83 221.46
  Z
  M 312.08 274.37
  Q 315.41 277.44 314.20 268.85
  Q 314.13 268.36 313.65 268.21
  Q 311.53 267.57 308.66 267.68
  L 313.62 267.67
  A 1.00 1.00 0.0 0 0 314.62 266.67
  L 314.67 230.42
  A 0.42 0.42 0.0 0 1 315.09 230.00
  L 344.74 229.95
  Q 344.93 229.95 344.94 229.76
  L 345.21 221.24
  Q 345.22 221.00 344.99 221.00
  L 306.53 221.00
  Q 306.02 221.00 306.02 221.51
  Q 306.00 242.24 306.00 264.00
  C 306.00 267.40 306.71 270.64 306.38 274.09
  Q 306.29 274.96 307.17 274.87
  L 312.08 274.37
  Z
  M 353.39 238.34
  Q 353.03 239.14 352.68 239.85
  Q 352.30 240.63 352.13 241.42
  Q 349.85 252.39 343.94 263.98
  Q 343.51 264.82 342.58 267.90
  Q 339.70 272.06 336.86 275.99
  Q 333.75 280.30 330.55 283.75
  C 324.45 290.31 320.58 294.66 314.79 299.17
  Q 312.40 301.03 308.08 303.45
  Q 304.17 305.64 300.73 308.21
  Q 300.56 308.33 300.64 308.52
  L 303.88 316.37
  Q 303.99 316.64 304.24 316.50
  Q 314.77 310.83 323.71 302.99
  Q 324.59 302.22 325.47 301.47
  Q 337.42 291.21 346.11 278.10
  Q 347.77 275.59 349.26 272.91
  Q 358.38 257.32 361.73 240.00
  Q 361.87 239.28 361.59 238.84
  Q 361.61 238.61 361.77 238.43
  Q 362.01 238.14 362.09 237.77
  Q 363.63 229.66 363.63 221.31
  Q 363.63 220.98 363.30 220.98
  L 355.30 221.02
  Q 355.06 221.03 355.04 221.26
  L 353.39 238.34
  Z
  M 143.82 259.97
  Q 148.61 270.91 155.51 280.91
  Q 156.20 281.52 156.67 282.35
  Q 157.37 283.62 157.61 283.93
  Q 165.10 293.87 174.49 302.05
  Q 175.13 302.62 177.02 303.31
  C 177.45 303.95 177.91 304.73 178.52 305.18
  Q 189.49 313.33 202.32 319.88
  C 206.76 322.15 211.86 323.12 216.57 324.76
  Q 222.00 326.65 227.84 327.80
  Q 242.03 330.61 256.48 329.52
  Q 262.15 329.32 265.25 328.68
  Q 266.01 328.53 265.82 327.52
  Q 265.96 327.95 266.20 328.18
  Q 266.43 328.41 266.77 328.36
  Q 276.80 326.89 286.55 323.15
  Q 287.05 322.95 286.87 322.44
  L 284.24 315.31
  A 0.38 0.38 0.0 0 0 283.75 315.08
  Q 275.01 318.35 265.50 320.20
  L 256.13 321.40
  Q 246.75 321.59 243.48 321.31
  Q 224.53 319.71 207.27 312.05
  C 201.52 309.50 195.59 305.74 189.99 302.39
  Q 188.66 301.58 186.20 299.78
  Q 184.21 298.32 182.28 297.31
  Q 169.16 284.63 165.06 279.45
  Q 161.93 275.50 160.98 274.54
  L 151.80 256.44
  L 147.47 243.68
  Q 147.36 243.39 147.07 243.49
  L 139.48 246.16
  Q 139.26 246.24 139.33 246.46
  L 143.82 259.97
  Z
  M 167.9064 253.5278
  A 5.81 5.68 36.4 0 0 166.6006 245.5082
  A 5.81 5.68 36.4 0 0 158.5536 246.6322
  A 5.81 5.68 36.4 0 0 159.8594 254.6518
  A 5.81 5.68 36.4 0 0 167.9064 253.5278
  Z
  M 341.93 250.11
  A 5.76 5.76 0.0 0 0 336.17 244.35
  A 5.76 5.76 0.0 0 0 330.41 250.11
  A 5.76 5.76 0.0 0 0 336.17 255.87
  A 5.76 5.76 0.0 0 0 341.93 250.11
  Z
  M 289.98 282.55
  A 5.47 5.47 0.0 0 0 284.51 277.08
  A 5.47 5.47 0.0 0 0 279.04 282.55
  A 5.47 5.47 0.0 0 0 284.51 288.02
  A 5.47 5.47 0.0 0 0 289.98 282.55
  Z
  M 262.91 297.67
  A 5.49 5.49 0.0 0 0 257.42 292.18
  A 5.49 5.49 0.0 0 0 251.93 297.67
  A 5.49 5.49 0.0 0 0 257.42 303.16
  A 5.49 5.49 0.0 0 0 262.91 297.67
  Z"
/>
<path fill="#293d4b" d="
  M 161.49 183.00
  Q 156.58 193.06 155.92 202.46
  Q 155.91 202.59 155.79 202.62
  Q 154.64 202.92 146.35 202.78
  Q 146.17 202.77 146.20 202.60
  Q 148.57 188.33 155.06 176.10
  C 156.27 173.82 156.99 171.48 158.38 169.22
  Q 163.13 161.49 166.37 157.97
  Q 170.59 153.39 174.96 148.64
  Q 182.00 141.01 189.10 136.63
  Q 192.56 134.50 195.86 132.42
  Q 199.34 130.23 202.82 128.50
  Q 222.36 118.77 244.01 117.27
  Q 244.27 117.25 244.28 117.51
  L 244.57 126.47
  A 0.29 0.28 -3.1 0 1 244.30 126.76
  Q 231.77 127.33 220.71 131.24
  Q 214.12 133.56 206.14 136.99
  Q 203.12 138.29 199.56 140.59
  Q 188.50 147.74 179.18 156.93
  Q 177.11 158.98 170.37 167.88
  Q 166.16 173.44 161.49 183.00
  Z"
/>
<path fill="#293d4b" d="
  M 354.80 209.24
  Q 352.96 210.55 350.76 210.42
  Q 350.26 210.39 349.83 210.64
  Q 347.18 212.14 344.94 209.16
  Q 344.37 204.84 343.66 200.38
  C 341.59 187.28 335.20 175.04 326.79 164.34
  Q 323.23 159.82 321.54 158.14
  Q 312.73 149.37 301.29 141.46
  C 297.45 138.81 292.88 136.49 288.33 134.98
  C 284.34 133.66 280.60 131.80 276.51 130.56
  Q 264.79 127.03 253.78 126.56
  Q 253.21 126.54 253.21 125.97
  L 253.25 117.78
  A 0.50 0.50 0.0 0 1 253.78 117.28
  C 271.20 118.11 288.91 123.33 304.05 132.72
  Q 307.07 134.59 310.07 136.40
  C 318.65 141.57 325.29 149.35 332.18 156.60
  C 335.17 159.75 337.50 163.04 339.90 166.57
  C 342.14 169.86 343.55 173.33 345.28 176.85
  Q 352.82 192.15 354.80 209.24
  Z"
/>
<path fill="#192d3b" d="
  M 289.36 161.61
  A 13.04 13.04 0.0 0 1 276.32 174.65
  A 13.04 13.04 0.0 0 1 263.28 161.61
  A 13.04 13.04 0.0 0 1 276.32 148.57
  A 13.04 13.04 0.0 0 1 289.36 161.61
  Z
  M 281.2698 162.3225
  A 4.80 4.65 12.3 0 0 277.5706 156.7567
  A 4.80 4.65 12.3 0 0 271.8902 160.2775
  A 4.80 4.65 12.3 0 0 275.5894 165.8433
  A 4.80 4.65 12.3 0 0 281.2698 162.3225
  Z"
/>
<path fill="#192d3b" d="
  M 200.92 177.21
  C 203.52 185.70 198.19 195.29 188.62 195.63
  Q 179.12 195.96 175.43 186.57
  Q 173.62 181.98 175.30 177.48
  Q 179.37 166.56 191.24 167.87
  Q 191.90 167.94 191.68 167.31
  C 189.49 161.27 191.71 156.81 196.24 152.96
  C 202.30 147.81 210.08 149.95 214.98 155.29
  C 219.38 160.09 218.70 167.06 214.78 171.79
  Q 209.70 177.93 201.30 176.76
  Q 200.76 176.69 200.92 177.21
  Z
  M 209.2528 163.8358
  A 5.11 4.90 9.3 0 0 205.0019 158.1744
  A 5.11 4.90 9.3 0 0 199.1672 162.1842
  A 5.11 4.90 9.3 0 0 203.4181 167.8456
  A 5.11 4.90 9.3 0 0 209.2528 163.8358
  Z
  M 193.8443 181.0952
  A 5.58 5.17 -5.5 0 0 187.7945 176.4838
  A 5.58 5.17 -5.5 0 0 182.7357 182.1648
  A 5.58 5.17 -5.5 0 0 188.7855 186.7762
  A 5.58 5.17 -5.5 0 0 193.8443 181.0952
  Z"
/>
<path fill="#192d3b" d="
  M 316.7593 194.6183
  A 14.02 13.69 68.1 0 1 298.8279 186.7162
  A 14.02 13.69 68.1 0 1 306.3007 168.6017
  A 14.02 13.69 68.1 0 1 324.2321 176.5038
  A 14.02 13.69 68.1 0 1 316.7593 194.6183
  Z
  M 317.0755 181.8051
  A 5.61 5.12 2.3 0 0 311.6755 176.4641
  A 5.61 5.12 2.3 0 0 305.8645 181.3549
  A 5.61 5.12 2.3 0 0 311.2645 186.6959
  A 5.61 5.12 2.3 0 0 317.0755 181.8051
  Z"
/>
<circle fill="#040707" fill-opacity="0.200" cx="217.79" cy="197.73" r="3.60"/>
<circle fill="#040707" fill-opacity="0.200" cx="280.42" cy="197.72" r="3.64"/>
<path fill="#abbfcb" d="
  M 361.59 238.84
  Q 361.87 239.28 361.73 240.00
  Q 358.38 257.32 349.26 272.91
  Q 345.24 271.68 342.58 267.90
  Q 343.51 264.82 343.94 263.98
  Q 349.85 252.39 352.13 241.42
  Q 352.30 240.63 352.68 239.85
  Q 353.03 239.14 353.39 238.34
  Q 356.82 236.51 361.59 238.84
  Z"
/>
<path fill="#040707" fill-opacity="0.200" d="
  M 297.29 249.19
  L 297.20 264.56
  A 0.67 0.67 0.0 0 1 296.53 265.23
  L 289.75 265.22
  Q 288.99 265.22 288.99 264.47
  L 288.97 249.48
  L 297.29 249.19
  Z"
/>
<path fill="#abbfcb" d="
  M 151.80 256.44
  L 160.98 274.54
  Q 160.45 276.95 159.05 278.05
  Q 157.54 279.23 155.51 280.91
  Q 148.61 270.91 143.82 259.97
  L 151.80 256.44
  Z"
/>
<path fill="#abbfcb" d="
  M 308.66 267.68
  Q 311.53 267.57 313.65 268.21
  Q 314.13 268.36 314.20 268.85
  Q 315.41 277.44 312.08 274.37
  L 308.99 272.99
  Q 308.53 272.78 308.33 272.32
  Q 306.99 269.16 308.66 267.68
  Z"
/>
<path fill="#192d3b" d="
  M 239.15 283.07
  Q 240.19 284.08 241.58 283.45
  Q 242.76 285.21 241.42 285.82
  A 1.04 1.03 41.6 0 1 240.66 285.86
  Q 239.01 285.29 239.37 284.78
  Q 239.57 284.49 239.37 284.21
  Q 238.71 283.29 239.15 283.07
  Z"
/>
<path fill="#293d4b" d="
  M 239.15 283.07
  Q 241.42 282.58 241.58 283.45
  Q 240.19 284.08 239.15 283.07
  Z"
/>
<path fill="#abbfcb" d="
  M 182.28 297.31
  Q 184.21 298.32 186.20 299.78
  Q 188.66 301.58 189.99 302.39
  C 195.59 305.74 201.52 309.50 207.27 312.05
  Q 224.53 319.71 243.48 321.31
  Q 246.75 321.59 256.13 321.40
  L 256.48 329.52
  Q 242.03 330.61 227.84 327.80
  Q 222.00 326.65 216.57 324.76
  C 211.86 323.12 206.76 322.15 202.32 319.88
  Q 189.49 313.33 178.52 305.18
  C 177.91 304.73 177.45 303.95 177.02 303.31
  L 182.28 297.31
  Z"
/>
<path fill="#abbfcb" d="
  M 265.82 327.52
  Q 264.96 324.13 265.50 320.20
  Q 275.01 318.35 283.75 315.08
  A 0.38 0.38 0.0 0 1 284.24 315.31
  L 286.87 322.44
  Q 287.05 322.95 286.55 323.15
  Q 276.80 326.89 266.77 328.36
  Q 266.43 328.41 266.20 328.18
  Q 265.96 327.95 265.82 327.52
  Z"
/>
<path fill="#192d3b" d="
  M 106.11 370.75
  C 107.04 365.33 113.46 360.80 118.56 360.32
  Q 125.42 359.68 131.59 364.31
  Q 131.78 364.46 131.62 364.63
  L 127.89 368.93
  Q 127.69 369.17 127.46 368.96
  C 123.21 365.28 116.75 364.48 113.64 370.19
  Q 111.17 374.73 113.88 379.54
  C 116.69 384.52 123.18 384.15 127.10 381.09
  Q 127.75 380.59 128.33 381.16
  L 131.48 384.29
  A 0.79 0.78 50.5 0 1 131.37 385.50
  Q 120.57 392.89 111.08 385.94
  C 105.89 382.13 105.08 376.73 106.11 370.75
  Z"
/>
<path fill="#192d3b" d="
  M 166.0517 375.5755
  A 15.16 14.52 3.5 0 1 150.0336 389.1429
  A 15.16 14.52 3.5 0 1 135.7883 373.7245
  A 15.16 14.52 3.5 0 1 151.8064 360.1571
  A 15.16 14.52 3.5 0 1 166.0517 375.5755
  Z
  M 151.2154 383.3370
  A 8.61 8.12 88.5 0 0 159.1072 374.5174
  A 8.61 8.12 88.5 0 0 150.7646 366.1230
  A 8.61 8.12 88.5 0 0 142.8728 374.9426
  A 8.61 8.12 88.5 0 0 151.2154 383.3370
  Z"
/>
<path fill="#192d3b" d="
  M 380.56 369.81
  L 386.20 361.76
  Q 386.89 360.78 388.08 360.73
  L 392.96 360.55
  Q 394.73 360.48 393.59 361.83
  Q 387.66 368.89 383.87 376.27
  Q 383.43 377.12 383.44 378.08
  L 383.54 388.22
  A 0.38 0.37 -3.5 0 1 383.21 388.59
  L 377.19 389.21
  Q 376.91 389.24 376.93 388.96
  Q 377.21 384.53 377.26 379.82
  Q 377.29 376.82 375.91 374.79
  Q 371.60 368.50 367.04 361.89
  Q 366.23 360.73 367.64 360.77
  Q 369.99 360.83 372.49 360.78
  Q 373.59 360.76 374.20 361.64
  Q 377.06 365.79 379.64 369.80
  Q 380.08 370.49 380.56 369.81
  Z"
/>
<path fill="#192d3b" d="
  M 172.49 361.41
  A 0.67 0.67 0.0 0 1 173.16 360.74
  L 184.49 360.76
  A 13.98 12.25 0.1 0 1 198.45 373.03
  L 198.45 376.53
  A 13.98 12.25 0.1 0 1 184.45 388.76
  L 173.12 388.74
  A 0.67 0.67 0.0 0 1 172.45 388.07
  L 172.49 361.41
  Z
  M 178.45 366.98
  L 178.47 382.48
  A 0.61 0.61 0.0 0 0 179.08 383.09
  L 183.43 383.08
  A 8.68 8.25 -0.1 0 0 192.10 374.82
  L 192.10 374.60
  A 8.68 8.25 -0.1 0 0 183.41 366.36
  L 179.06 366.37
  A 0.61 0.61 0.0 0 0 178.45 366.98
  Z"
/>
<path fill="#192d3b" d="
  M 211.95 378.29
  L 212.04 382.79
  A 0.46 0.46 0.0 0 0 212.50 383.24
  L 226.60 383.26
  A 0.46 0.46 0.0 0 1 227.06 383.73
  L 227.00 388.42
  A 0.46 0.46 0.0 0 1 226.53 388.88
  L 205.88 388.79
  A 0.46 0.46 0.0 0 1 205.42 388.33
  L 205.28 361.22
  A 0.46 0.46 0.0 0 1 205.74 360.76
  L 226.34 360.71
  A 0.46 0.46 0.0 0 1 226.80 361.16
  L 226.87 365.68
  A 0.46 0.46 0.0 0 1 226.41 366.15
  L 212.53 366.22
  A 0.46 0.46 0.0 0 0 212.07 366.68
  L 212.04 371.51
  A 0.46 0.46 0.0 0 0 212.50 371.97
  L 223.22 371.99
  A 0.46 0.46 0.0 0 1 223.68 372.46
  L 223.62 377.40
  A 0.46 0.46 0.0 0 1 223.16 377.85
  L 212.41 377.82
  A 0.46 0.46 0.0 0 0 211.95 378.29
  Z"
/>
<path fill="#293d4b" d="
  M 287.37 384.82
  L 291.32 388.52
  Q 292.05 389.21 291.40 389.97
  L 288.72 393.17
  A 0.98 0.97 41.9 0 1 287.29 393.24
  L 282.20 388.34
  A 1.18 1.18 0.0 0 0 280.92 388.09
  C 275.84 390.13 269.50 387.95 265.65 384.65
  Q 262.60 382.03 261.91 377.24
  Q 260.46 367.24 269.05 362.57
  C 275.07 359.30 280.64 360.30 285.89 364.15
  C 291.34 368.15 291.92 375.40 289.21 381.40
  Q 288.53 382.91 287.37 384.01
  Q 286.94 384.41 287.37 384.82
  Z
  M 275.18 379.67
  L 278.32 376.02
  Q 278.60 375.69 278.88 376.01
  L 282.92 380.44
  A 0.82 0.82 0.0 0 0 284.25 380.27
  Q 288.44 372.41 281.80 366.68
  Q 280.19 365.28 278.03 365.03
  C 262.39 363.21 263.55 386.94 278.35 384.59
  Q 279.22 384.45 278.61 383.81
  L 275.20 380.24
  A 0.43 0.42 43.4 0 1 275.18 379.67
  Z"
/>
<path fill="#192d3b" d="
  M 355.81 367.07
  L 356.00 387.89
  A 0.85 0.85 0.0 0 1 355.18 388.75
  L 350.49 388.91
  A 0.85 0.85 0.0 0 1 349.61 388.06
  L 349.60 367.18
  A 0.85 0.85 0.0 0 0 348.78 366.34
  L 342.61 366.15
  A 0.85 0.85 0.0 0 1 341.79 365.32
  L 341.74 361.68
  A 0.85 0.85 0.0 0 1 342.59 360.82
  L 363.35 360.73
  A 0.85 0.85 0.0 0 1 364.20 361.57
  L 364.24 365.40
  A 0.85 0.85 0.0 0 1 363.38 366.26
  L 356.67 366.21
  A 0.85 0.85 0.0 0 0 355.81 367.07
  Z"
/>
<path fill="#192d3b" d="
  M 240.37 365.46
  L 240.40 372.50
  A 0.51 0.51 0.0 0 0 240.90 373.00
  L 252.13 373.10
  A 0.51 0.51 0.0 0 1 252.63 373.69
  L 252.09 376.80
  A 0.51 0.51 0.0 0 1 251.59 377.22
  L 240.84 377.20
  A 0.51 0.51 0.0 0 0 240.33 377.71
  L 240.34 384.49
  A 0.51 0.51 0.0 0 0 240.85 385.00
  L 255.71 384.97
  A 0.51 0.51 0.0 0 1 256.22 385.50
  L 256.12 388.25
  A 0.51 0.51 0.0 0 1 255.61 388.74
  L 237.28 388.71
  A 0.51 0.51 0.0 0 1 236.78 388.21
  L 236.54 361.54
  A 0.51 0.51 0.0 0 1 237.05 361.03
  L 255.61 361.05
  A 0.51 0.51 0.0 0 1 256.11 361.56
  L 256.09 364.46
  A 0.51 0.51 0.0 0 1 255.57 364.97
  L 240.88 364.95
  A 0.51 0.51 0.0 0 0 240.37 365.46
  Z"
/>
<path fill="#192d3b" d="
  M 310.39 385.13
  C 314.47 384.83 316.06 381.45 316.03 377.77
  Q 315.97 369.95 315.95 361.48
  A 0.51 0.50 -0.0 0 1 316.46 360.98
  L 320.22 360.98
  Q 320.73 360.98 320.72 361.49
  Q 320.63 370.51 320.62 379.43
  Q 320.61 384.74 315.96 387.35
  C 308.18 391.71 299.01 387.60 298.91 378.03
  Q 298.82 369.33 298.87 361.60
  Q 298.88 361.00 299.48 361.00
  L 302.30 360.99
  Q 302.89 360.98 302.91 361.58
  Q 303.06 368.94 302.94 377.03
  C 302.88 381.85 304.72 385.54 310.39 385.13
  Z"
/>
<rect fill="#192d3b" x="-2.23" y="-13.85" transform="translate(332.06,374.86) rotate(-0.1)" width="4.46" height="27.70" rx="0.47"/>
</svg>
